<?xml version="1.0" encoding="UTF-8"?>
<!DOCTYPE svg PUBLIC "-//W3C//DTD SVG 1.1//EN" "http://www.w3.org/Graphics/SVG/1.1/DTD/svg11.dtd">
<svg xmlns="http://www.w3.org/2000/svg" version="1.1" width="500px" height="500px" style="shape-rendering:geometricPrecision; text-rendering:geometricPrecision; image-rendering:optimizeQuality; fill-rule:evenodd; clip-rule:evenodd" xmlns:xlink="http://www.w3.org/1999/xlink">
<g><path style="opacity:1" fill="#fefefe" d="M -0.5,-0.5 C 166.167,-0.5 332.833,-0.5 499.5,-0.5C 499.5,166.167 499.5,332.833 499.5,499.5C 332.833,499.5 166.167,499.5 -0.5,499.5C -0.5,332.833 -0.5,166.167 -0.5,-0.5 Z"/></g>
<g><path style="opacity:1" fill="#be3250" d="M 299.5,172.5 C 302.38,172.033 304.713,172.866 306.5,175C 292.617,225.7 279.283,276.534 266.5,327.5C 263.145,327.632 260.811,326.299 259.5,323.5C 272.994,273.191 286.327,222.858 299.5,172.5 Z"/></g>
<g><path style="opacity:1" fill="#0d0d0d" d="M 87.5,195.5 C 94.6612,195.05 101.661,195.717 108.5,197.5C 108.442,200.623 107.108,202.956 104.5,204.5C 99.6092,202.79 94.6092,202.29 89.5,203C 86.6384,204.786 85.9717,207.119 87.5,210C 91.3634,211.732 95.3634,213.066 99.5,214C 105.666,217.656 107.166,222.822 104,229.5C 94.4579,237.657 84.1246,238.657 73,232.5C 72.8363,229.478 73.8363,226.811 76,224.5C 79.1748,227.668 83.0081,229.002 87.5,228.5C 89.5,228.333 91.5,228.167 93.5,228C 97.0374,226.174 97.3707,223.84 94.5,221C 90.3634,220.066 86.3634,218.732 82.5,217C 77.7773,213.746 76.2773,209.246 78,203.5C 80.3247,199.765 83.4914,197.099 87.5,195.5 Z"/></g>
<g><path style="opacity:1" fill="#0c0c0c" d="M 117.5,195.5 C 120.898,195.18 124.232,195.513 127.5,196.5C 124.579,209.437 121.913,222.437 119.5,235.5C 116.5,235.5 113.5,235.5 110.5,235.5C 113.092,222.209 115.425,208.875 117.5,195.5 Z"/></g>
<g><path style="opacity:1" fill="#0b0b0b" d="M 136.5,195.5 C 139.247,195.187 141.914,195.52 144.5,196.5C 147.765,204.46 150.931,212.46 154,220.5C 160.38,212.242 166.88,204.076 173.5,196C 176.146,195.503 178.813,195.336 181.5,195.5C 178.711,208.78 176.044,222.113 173.5,235.5C 170.833,235.5 168.167,235.5 165.5,235.5C 166.491,227.73 167.658,220.063 169,212.5C 164.667,218.167 160.333,223.833 156,229.5C 154.267,231.602 152.267,231.935 150,230.5C 147.714,224.299 145.047,218.299 142,212.5C 139.921,220.06 138.421,227.727 137.5,235.5C 134.5,235.5 131.5,235.5 128.5,235.5C 131.04,222.135 133.706,208.802 136.5,195.5 Z"/></g>
<g><path style="opacity:1" fill="#090909" d="M 190.5,195.5 C 198.585,195.099 206.585,195.599 214.5,197C 222.443,200.558 224.61,206.391 221,214.5C 218.807,220.188 214.64,223.355 208.5,224C 203.511,224.499 198.511,224.666 193.5,224.5C 193.058,228.154 192.724,231.821 192.5,235.5C 189.5,235.5 186.5,235.5 183.5,235.5C 185.833,222.167 188.167,208.833 190.5,195.5 Z"/></g>
<g><path style="opacity:1" fill="#090909" d="M 236.5,223.5 C 235.549,224.919 235.216,226.585 235.5,228.5C 242.255,227.877 248.588,228.544 254.5,230.5C 254.5,232.167 254.5,233.833 254.5,235.5C 244.5,235.5 234.5,235.5 224.5,235.5C 226.933,222.834 229.433,210.167 232,197.5C 234.804,195.656 237.97,194.989 241.5,195.5C 239.576,204.787 237.909,214.12 236.5,223.5 Z"/></g>
<g><path style="opacity:1" fill="#be3150" d="M 266.5,195.5 C 269.5,195.5 272.5,195.5 275.5,195.5C 273.425,208.875 271.092,222.209 268.5,235.5C 265.5,235.5 262.5,235.5 259.5,235.5C 261.317,222.081 263.65,208.747 266.5,195.5 Z"/></g>
<g><path style="opacity:1" fill="#f6f6f6" d="M 206.5,216.5 C 202.671,217.069 199.337,216.402 196.5,214.5C 196.594,210.864 197.261,207.364 198.5,204C 202.5,203.333 206.5,203.333 210.5,204C 214.534,208.219 214.201,212.219 209.5,216C 208.552,216.483 207.552,216.649 206.5,216.5 Z"/></g>
<g><path style="opacity:1" fill="#818181" d="M 196.5,214.5 C 199.337,216.402 202.671,217.069 206.5,216.5C 203.038,217.482 199.371,217.815 195.5,217.5C 195.263,216.209 195.596,215.209 196.5,214.5 Z"/></g>
<g><path style="opacity:1" fill="#8a8a8a" d="M 236.5,223.5 C 236.5,224.833 236.5,226.167 236.5,227.5C 242.833,227.5 249.167,227.5 255.5,227.5C 255.737,228.791 255.404,229.791 254.5,230.5C 248.588,228.544 242.255,227.877 235.5,228.5C 235.216,226.585 235.549,224.919 236.5,223.5 Z"/></g>
<g><path style="opacity:1" fill="#cd6079" d="M 296.5,264.5 C 306.319,263.506 316.319,263.173 326.5,263.5C 326.737,264.791 326.404,265.791 325.5,266.5C 316.225,264.527 306.558,263.86 296.5,264.5 Z"/></g>
<g><path style="opacity:1" fill="#0d0d0d" d="M 361.5,263.5 C 368.877,262.689 375.877,263.856 382.5,267C 383.357,267.689 384.023,268.522 384.5,269.5C 382.833,271.833 380.833,273.833 378.5,275.5C 369.318,268.114 361.485,269.447 355,279.5C 351.948,291.434 356.448,296.934 368.5,296C 371.112,295.361 373.446,294.194 375.5,292.5C 377.149,293.648 378.649,294.981 380,296.5C 380.507,297.996 380.007,299.163 378.5,300C 367.613,306.676 357.447,305.843 348,297.5C 341.643,281.877 346.143,270.544 361.5,263.5 Z"/></g>
<g><path style="opacity:1" fill="#bc2a4b" d="M 296.5,264.5 C 306.558,263.86 316.225,264.527 325.5,266.5C 325.5,267.5 325.5,268.5 325.5,269.5C 318.4,270.134 311.4,270.801 304.5,271.5C 302.989,274.544 302.322,277.878 302.5,281.5C 308.537,281.171 314.537,281.504 320.5,282.5C 319.691,284.071 319.357,285.738 319.5,287.5C 313.066,288.13 306.733,288.797 300.5,289.5C 299.253,293.712 298.42,298.045 298,302.5C 294.943,303.451 291.777,303.784 288.5,303.5C 290.934,290.329 293.6,277.329 296.5,264.5 Z"/></g>
<g><path style="opacity:1" fill="#0d0d0d" d="M 332.5,263.5 C 335.5,263.5 338.5,263.5 341.5,263.5C 338.65,276.747 336.317,290.081 334.5,303.5C 331.167,303.5 327.833,303.5 324.5,303.5C 327.04,290.135 329.706,276.802 332.5,263.5 Z"/></g>
<g><path style="opacity:1" fill="#090909" d="M 405.5,263.5 C 408.5,263.5 411.5,263.5 414.5,263.5C 418.133,276.697 421.133,290.03 423.5,303.5C 420.5,303.5 417.5,303.5 414.5,303.5C 414.492,300.455 414.159,297.455 413.5,294.5C 407.158,294.334 400.825,294.5 394.5,295C 393.084,297.835 391.417,300.502 389.5,303C 386.446,303.821 383.446,303.655 380.5,302.5C 388.594,289.302 396.928,276.302 405.5,263.5 Z"/></g>
<g><path style="opacity:1" fill="#d3768b" d="M 325.5,269.5 C 318.913,271.461 311.913,272.128 304.5,271.5C 311.4,270.801 318.4,270.134 325.5,269.5 Z"/></g>
<g><path style="opacity:1" fill="#f2f2f2" d="M 410.5,283.5 C 410.5,284.833 410.5,286.167 410.5,287.5C 406.833,287.5 403.167,287.5 399.5,287.5C 402.071,282.695 404.904,278.028 408,273.5C 409.524,276.61 410.358,279.944 410.5,283.5 Z"/></g>
<g><path style="opacity:1" fill="#8a8a8a" d="M 410.5,283.5 C 411.451,284.919 411.784,286.585 411.5,288.5C 407.298,288.817 403.298,288.483 399.5,287.5C 403.167,287.5 406.833,287.5 410.5,287.5C 410.5,286.167 410.5,284.833 410.5,283.5 Z"/></g>
<g><path style="opacity:1" fill="#db8c9e" d="M 319.5,287.5 C 313.588,289.456 307.255,290.123 300.5,289.5C 306.733,288.797 313.066,288.13 319.5,287.5 Z"/></g>
</svg>
